<svg height="512pt" viewBox="0 0 511 512" width="512pt" xmlns="http://www.w3.org/2000/svg"><path d="m496.445312 209.558594c0 107.453125-87.109374 194.566406-194.566406 194.566406-107.457031 0-194.566406-87.113281-194.566406-194.566406 0-107.457032 87.109375-194.566406 194.566406-194.566406 107.457032 0 194.566406 87.109374 194.566406 194.566406zm0 0" fill="#f1f1f2"/><path d="m439.367188 71.890625-274.992188 275.320313c35.203125 35.164062 83.8125 56.914062 137.503906 56.914062 107.453125 0 194.566406-87.113281 194.566406-194.566406 0-53.773438-21.816406-102.453125-57.078124-137.667969zm0 0" fill="#f3eee9"/><path d="m415.523438 209.558594c0 62.761718-50.878907 113.644531-113.644532 113.644531s-113.644531-50.882813-113.644531-113.644531c0-62.765625 50.878906-113.644532 113.644531-113.644532s113.644532 50.878907 113.644532 113.644532zm0 0" fill="#ffe14e"/><path d="m382.179688 129.144531-160.617188 160.8125c20.5625 20.539063 48.957031 33.246094 80.316406 33.246094 62.765625 0 113.644532-50.882813 113.644532-113.644531 0-31.410156-12.742188-59.84375-33.34375-80.414063zm0 0" fill="#ffdc00"/><path d="m301.878906 0c-115.550781 0-209.558594 94.007812-209.558594 209.558594 0 39.96875 11.253907 77.355468 30.753907 109.171875l-122.574219 122.570312 70.699219 70.699219 122.832031-122.832031c31.527344 19 68.429688 29.945312 107.847656 29.945312 115.550782 0 209.558594-94.007812 209.558594-209.558593 0-115.546876-94.007812-209.554688-209.558594-209.554688zm0 389.132812c-99.019531 0-179.574218-80.558593-179.574218-179.574218 0-99.019532 80.554687-179.574219 179.574218-179.574219 99.015625 0 179.574219 80.554687 179.574219 179.574219 0 99.015625-80.554687 179.574218-179.574219 179.574218zm0 0" fill="#725d57"/><path d="m449.890625 61.351562-21.175781 21.203126c32.5625 32.523437 52.738281 77.453124 52.738281 127.003906 0 99.015625-80.558594 179.574218-179.574219 179.574218-49.476562 0-94.339844-20.113281-126.851562-52.589843l-139.558594 139.726562 35.730469 35.730469 122.832031-122.832031c31.527344 19 68.429688 29.945312 107.847656 29.945312 115.550782 0 209.558594-94.007812 209.558594-209.558593 0-57.820313-23.542969-110.25-61.546875-148.203126zm0 0" fill="#53433f"/><path d="m453.664062 224.550781v-29.984375h-24.027343c-1.472657-12.609375-4.769531-24.667968-9.628907-35.898437l20.816407-12.019531-14.992188-25.964844-20.847656 12.035156c-7.445313-9.964844-16.300781-18.820312-26.265625-26.265625l12.035156-20.847656-25.964844-14.992188-12.019531 20.816407c-11.234375-4.859376-23.289062-8.160157-35.898437-9.628907v-24.027343h-29.984375v24.027343c-12.609375 1.46875-24.667969 4.769531-35.898438 9.628907l-12.019531-20.816407-25.964844 14.992188 12.039063 20.847656c-9.96875 7.445313-18.824219 16.300781-26.269531 26.265625l-20.847657-12.035156-14.992187 25.964844 20.816406 12.019531c-4.859375 11.230469-8.15625 23.289062-9.628906 35.898437h-24.027344v29.984375h24.027344c1.472656 12.605469 4.769531 24.664063 9.628906 35.898438l-20.816406 12.019531 14.992187 25.964844 20.847657-12.039063c7.445312 9.964844 16.300781 18.820313 26.269531 26.265625l-12.039063 20.851563 25.964844 14.992187 12.019531-20.816406c11.234375 4.859375 23.289063 8.15625 35.898438 9.628906v24.027344h29.984375v-24.027344c12.609375-1.472656 24.667968-4.769531 35.902344-9.628906l12.015624 20.816406 25.964844-14.992187-12.035156-20.851563c9.964844-7.445312 18.820312-16.300781 26.265625-26.265625l20.847656 12.039063 14.992188-25.964844-20.816407-12.019531c4.859376-11.234375 8.15625-23.292969 9.628907-35.898438zm-151.785156 83.660157c-54.398437 0-98.652344-44.257813-98.652344-98.652344 0-54.398438 44.253907-98.652344 98.652344-98.652344 54.398438 0 98.652344 44.253906 98.652344 98.652344 0 54.394531-44.253906 98.652344-98.652344 98.652344zm0 0" fill="#70da40"/><path d="m420.007812 158.667969 20.816407-12.019531-14.992188-25.964844-20.847656 12.035156c-3.742187-5.003906-7.839844-9.730469-12.253906-14.136719l-21.175781 21.203125c17.890624 17.867188 28.976562 42.550782 28.976562 69.773438 0 54.398437-44.253906 98.652344-98.652344 98.652344-27.179687 0-51.828125-11.050782-69.691406-28.894532l-21.175781 21.203125c4.375 4.375 9.066406 8.433594 14.03125 12.144531l-12.039063 20.851563 25.964844 14.988281 12.019531-20.816406c11.234375 4.859375 23.292969 8.160156 35.898438 9.628906v24.027344h29.984375v-24.027344c12.609375-1.46875 24.667968-4.769531 35.902344-9.628906l12.015624 20.816406 25.964844-14.988281-12.035156-20.851563c9.964844-7.445312 18.820312-16.300781 26.265625-26.269531l20.851563 12.039063 14.992187-25.964844-20.816406-12.019531c4.855469-11.230469 8.15625-23.289063 9.625-35.898438h24.027343v-29.984375h-24.027343c-1.472657-12.609375-4.769531-24.667968-9.628907-35.898437zm0 0" fill="#49a520"/><path d="m295.285156 135.5625c-25.0625 0-45.449218 20.386719-45.449218 45.449219s20.386718 45.449219 45.449218 45.449219 45.449219-20.386719 45.449219-45.449219-20.386719-45.449219-45.449219-45.449219zm0 0" fill="#ff7037"/><path d="m262.824219 262.824219 21.199219-21.203125 21.203124 21.203125-21.199218 21.203125zm0 0" fill="#ff6426"/><path d="m343.363281 235.03125 21.199219-21.199219 21.203125 21.203125-21.199219 21.199219zm0 0" fill="#ff6426"/><g fill="#ff1f3e"><path d="m262.824219 262.824219 21.199219-21.203125 21.203124 21.203125-21.199218 21.203125zm0 0"/><path d="m343.363281 235.03125 21.199219-21.199219 21.203125 21.203125-21.199219 21.199219zm0 0"/><path d="m285.949219 225.492188c3.011719.632812 6.136719.96875 9.335937.96875 25.058594 0 45.449219-20.386719 45.449219-45.449219 0-3.21875-.34375-6.359375-.980469-9.390625zm0 0"/></g></svg>